<svg xmlns="http://www.w3.org/2000/svg" width="20" height="19" viewBox="0 0 20 19"><g><g><path fill="#4f4ad2" d="M1.558 2.206a4.12 4.12 0 0 1 5.814 0l8.636 8.678a2.466 2.466 0 0 1 0 3.497 2.466 2.466 0 0 1-3.497 0l-5.35-5.393a.814.814 0 0 1 0-1.18.814.814 0 0 1 1.18 0l5.392 5.351c.295.295.8.295 1.096 0a.789.789 0 0 0 0-1.095L6.192 3.385c-.927-.927-2.485-.927-3.412 0s-.927 2.486 0 3.413l8.636 8.678c1.601 1.601 4.17 1.601 5.73 0 1.6-1.6 1.6-4.17 0-5.73L9.394 1.996a.815.815 0 0 1 0-1.18.814.814 0 0 1 1.18 0l7.751 7.71c2.233 2.233 2.233 5.898 0 8.13-2.233 2.233-5.898 2.233-8.13 0L1.557 8.02a4.12 4.12 0 0 1 0-5.813z"/></g></g></svg>