<svg xmlns="http://www.w3.org/2000/svg" width="18" height="18" viewBox="0 0 18 18"><g><g opacity=".5"><g opacity=".5"><path d="M15.409 14.74l-3.219-3.22c.329-.33.665-.721.922-1.032l3.125 3.126c-.17.25-.472.68-.828 1.125zm-1.837 1.593c-4.117 0-11.905-7.789-11.905-11.905 0-.11.082-.52 1.081-1.406l1.647 1.647L6.03 6.304c-.151.193-.24.355-.275.498-.298 1.206.279 2.716 1.503 3.94 1.224 1.224 2.733 1.8 3.94 1.503.143-.035.305-.124.498-.275l1.635 1.635 1.647 1.647c-.886.999-1.296 1.081-1.406 1.081zM4.386 1.763l3.126 3.125c-.311.257-.702.593-1.033.922L3.261 2.59c.445-.356.875-.658 1.125-.828zm8.936 7.992a.335.335 0 0 0-.496.028c-.237.296-.84 1.034-1.336 1.487-.315.288-.44.325-.452.328-.966.236-2.265-.283-3.309-1.327S6.164 7.928 6.402 6.962c.003-.013.04-.136.327-.451.454-.497 1.192-1.1 1.488-1.337a.333.333 0 0 0 .027-.496l-3.58-3.58a.333.333 0 0 0-.417-.045c-.035.023-.88.57-1.697 1.259C1.507 3.19 1 3.882 1 4.428 1 8.892 9.107 17 13.572 17c.546 0 1.238-.507 2.116-1.55.688-.817 1.236-1.661 1.259-1.697a.333.333 0 0 0-.045-.417z"/><path fill="none" stroke="#000" stroke-miterlimit="20" stroke-width=".5" d="M15.409 14.74l-3.219-3.22c.329-.33.665-.721.922-1.032l3.125 3.126c-.17.25-.472.68-.828 1.125zm-1.837 1.593c-4.117 0-11.905-7.789-11.905-11.905 0-.11.082-.52 1.081-1.406l1.647 1.647L6.03 6.304c-.151.193-.24.355-.275.498v0c-.298 1.206.279 2.716 1.503 3.94 1.224 1.224 2.733 1.8 3.94 1.503.143-.035.305-.124.498-.275l1.635 1.635 1.647 1.647c-.886.999-1.296 1.081-1.406 1.081zM4.386 1.763l3.126 3.125c-.311.257-.702.593-1.033.922L3.261 2.59c.445-.356.875-.658 1.125-.828zm8.936 7.992a.335.335 0 0 0-.496.028c-.237.296-.84 1.034-1.336 1.487-.315.288-.44.325-.452.328-.966.236-2.265-.283-3.309-1.327S6.164 7.928 6.402 6.962c.003-.013.04-.136.327-.451 0 0 0 0 0 0 .454-.497 1.192-1.1 1.488-1.337a.333.333 0 0 0 .027-.496l-3.58-3.58a.333.333 0 0 0-.417-.045c-.035.023-.88.57-1.697 1.259 0 0 0 0 0 0C1.507 3.19 1 3.882 1 4.428 1 8.892 9.107 17 13.572 17c.546 0 1.238-.507 2.116-1.55 0 0 0 0 0 0 .688-.817 1.236-1.661 1.259-1.697a.333.333 0 0 0-.045-.417z"/></g></g></g></svg>