<svg xmlns="http://www.w3.org/2000/svg" width="820" height="190" viewBox="0 0 820 190"><g><g opacity=".2"><path fill="#4f4ad2" d="M0 137a6 6 0 1 1 12 0 6 6 0 0 1-12 0z"/></g><g opacity=".2"><path fill="none" stroke="#4f4ad2" stroke-miterlimit="20" d="M11 136.631v0h102.85c12.043 0 21.807-8.955 21.807-20v-94.52c0-11.324 9.833-20.589 22.176-20.893l181.044-.21C351.144.704 361.268 9.743 361.268 21v141.3c0 8.835 7.811 16 17.445 16H562.44c12.043 0 21.806-8.956 21.806-20V94.65c0-10.996 9.678-19.929 21.665-20l186.032-1.076c11.563-.069 21.174 8.152 21.904 18.736l.482 85.99v0"/></g><g opacity=".2"><path fill="#4f4ad2" d="M808 184a6 6 0 1 1 12 0 6 6 0 0 1-12 0z"/></g></g></svg>