<svg xmlns="http://www.w3.org/2000/svg" width="105" height="78" viewBox="0 0 105 78"><g><g clip-path="url(#clip-40E8E030-784F-457C-8B60-724214628115)"><path fill="#40baca" d="M36.632 0C12.21 12.41 0 29.61 0 51.605 0 58.94 2.28 65.17 6.837 70.301 11.395 75.435 16.823 78 23.127 78c5.626 0 10.324-1.972 14.096-5.922 3.769-3.947 5.655-8.798 5.655-14.551 0-5.414-1.915-10.178-5.74-14.297-3.827-4.116-8.722-6.514-14.686-7.191 0-9.137 6.921-17.089 20.763-23.857zm61.953 0c-24.535 12.41-36.8 29.61-36.8 51.605 0 7.334 2.305 13.565 6.92 18.696C73.32 75.435 78.777 78 85.082 78c5.626 0 10.297-1.972 14.01-5.922 3.715-3.947 5.571-8.798 5.571-14.551 0-5.414-1.914-10.178-5.74-14.297-3.826-4.116-8.667-6.514-14.517-7.191 0-9.137 6.863-17.089 20.595-23.857z"/></g></g></svg>